<svg id="Calque_1" data-name="Calque 1" xmlns="http://www.w3.org/2000/svg" viewBox="0 0 1080 1080"><defs><style>.cls-1{fill:#ded5d2;}.cls-2{fill:#401e12;}.cls-3{fill:#7e6157;}.cls-10,.cls-4{fill:#5f3e33;}.cls-5{fill:#9e867e;}.cls-6{fill:#fefefe;}.cls-7{fill:#dd073a;}.cls-8{fill:none;}.cls-9{fill:#e5e5e5;}.cls-10{font-size:114.28px;font-family:Poppins-ExtraBold, Poppins;font-weight:800;}.cls-11{fill:#3f3f3f;}</style></defs><path class="cls-1" d="M606.43,392.67a175.45,175.45,0,0,1,29-5.69c6.25-.73,12.49-1.54,18.73,0a28.08,28.08,0,0,1,16.69,11.15c8.53,12.07,4.07,28.57-9.47,36C655,437.69,648,438.67,641,439.82c-9.6,1.58-19.21,3.18-29,3.63-.3-8.14-2.1-16.1-2.81-24.18C608.47,410.38,606.24,401.66,606.43,392.67Z"/><path class="cls-2" d="M542.77,444.26c.73,3.09,1.69,6.15,2.13,9.28.31,2.31,2,2.23,3.42,2.64,9,2.62,17.65,6,25.36,11.42a36.14,36.14,0,0,1-11.8,19.16c-6.86,5.73-14.48,10-23.88,9.59-.35-5.42-.7-10.84-1.08-16.77-9.26,6.86-19.21,7-29.51,4.27-4.06-.77-7.23-3.56-11.05-4.89l-3.8-4.54a8.67,8.67,0,0,1,3.51-4.19c5-3.26,9.92-6.74,14.88-10.1q14.66-10,29.34-19.87Z"/><path class="cls-1" d="M542.77,444.26l-2.48-4c-5-9.27-12.6-15.06-23.17-16.65l-1.84-.48a271.58,271.58,0,0,1,14.58-44.71c1.36-3.18,2.63-6.41,4.78-9.18a14.34,14.34,0,0,0,5.73,5.35c6.29,3.73,12.39,7.78,18.73,11.42,5.28,3,10,7.12,15.86,9.05-3.52,3.67-7.09,7.29-10.53,11-.66.72-2.37,1.06-1.56,2.71q-4.08,2.83-8.17,5.69c-2,1.37-2.79,2.87-2.55,5.65.7,8.33,2.71,16.51,2.67,24.91A53.47,53.47,0,0,1,542.77,444.26Z"/><path class="cls-1" d="M556.36,333.76c7.25-10.41,14-21.49,27.11-25.46,9.78-3,19.25-1.84,26.83,5.69,7.4,7.35,8.83,16.39,6.2,26.31-2.28,8.6-8.42,14.75-13.33,21.7a9.25,9.25,0,0,1-5.74-1.35c-9.45-5.85-19.1-11.38-28.38-17.47C564.67,340.3,559.32,338.59,556.36,333.76Z"/><path class="cls-1" d="M556.36,333.76c3,4.83,8.31,6.54,12.69,9.42,9.28,6.09,18.93,11.62,28.38,17.47a9.25,9.25,0,0,0,5.74,1.35A355.35,355.35,0,0,1,575,395.06c-5.9-1.93-10.58-6-15.86-9.05-6.34-3.64-12.44-7.69-18.73-11.42a14.34,14.34,0,0,1-5.73-5.35C540.29,356.44,547.14,344.37,556.36,333.76Z"/><path class="cls-2" d="M515.28,423.13l1.84.48c-.33.41-.57,1-1,1.2-7.49,4.12-14.3,9.26-21.4,14-2.7,1.79-4.94,4.58-8.61,4.59l-.44-.5-.21.61,0-.07c-5.29,1.67-10.41,4-16.3,2.56-3.48-.83-6.21-3-9.49-4.12-1-3-3.73-4.7-5.45-7.16-.76-4.31-2.27-8.42-1.28-13,2.4-11.11,11.53-17.95,23.24-16.94,10.25.88,18.2,10.07,18.19,21V430A30.22,30.22,0,0,1,515.28,423.13Z"/><path class="cls-3" d="M549.16,536.28A112.51,112.51,0,0,1,542,516.15c9.27-.74,18.38-2,26.64-6.81,11.13-6.43,17.76-16.44,22.49-28,6,5.74,11.81,11.67,15.35,19.37a17.83,17.83,0,0,0-1.15,1.59C592.93,524.11,574.26,535.5,549.16,536.28Z"/><path class="cls-4" d="M549.16,536.28c25.1-.78,43.77-12.17,56.14-34a17.83,17.83,0,0,1,1.15-1.59c5.06,5.64,8.31,12.33,11.28,19.19-4.85,6.88-9.54,13.86-16.15,19.28-11.79,9.66-25,15.81-40.35,17.17-3.1-1.5-4-4.73-5.64-7.33A64,64,0,0,1,549.16,536.28Z"/><path class="cls-3" d="M561.23,556.35c15.31-1.36,28.56-7.51,40.35-17.17,6.61-5.42,11.3-12.4,16.15-19.28a134.32,134.32,0,0,1,8.73,22.6,63.42,63.42,0,0,1-25,24.65c-7.54,4-15.74,5.68-24,7a4.23,4.23,0,0,1-2.89-1.13,112.46,112.46,0,0,1-12.83-14.82A5.08,5.08,0,0,1,561.23,556.35Z"/><path class="cls-2" d="M486.11,443.38c3.67,0,5.91-2.8,8.61-4.59,7.1-4.72,13.91-9.86,21.4-14,.43-.24.67-.79,1-1.2,10.57,1.59,18.12,7.38,23.17,16.65q-14.67,9.93-29.34,19.87c-5,3.36-9.85,6.84-14.88,10.1a8.67,8.67,0,0,0-3.51,4.19,13.45,13.45,0,0,1-3.45-4.43c-2.48-3.91-3.59-8.38-5-12.71-.46-4.71,1.05-9.23,1.41-13.86l0,.07A4.64,4.64,0,0,1,486.11,443.38Z"/><path class="cls-1" d="M606.43,392.67c-.19,9,2,17.71,2.82,26.6.71,8.08,2.51,16,2.81,24.18A121.72,121.72,0,0,1,594.6,445c-4.13.14-8.28-.14-12.36.78-.68-5.93-1.46-11.84-2-17.78-.83-8.57-2.94-17-2.81-25.69C586.89,398.56,596.4,394.85,606.43,392.67Z"/><path class="cls-5" d="M484.07,457.28c1.45,4.33,2.56,8.8,5,12.71a412.33,412.33,0,0,1-18.36,46.35c-3.86,8.1-2.45,16.55-1.9,25,1.26,19.19,2.19,38.38-.31,57.54a67.36,67.36,0,0,1-3.22,14.1c-1,2.72-2.66,4.62-5.71,3.56s-3.44-3.41-2.39-6.26c2.69-7.27,3.49-14.91,3.87-22.55A339.86,339.86,0,0,0,460,538.16c-1-10.27.1-19.94,4.69-29.36C472.74,492.26,478.66,474.85,484.07,457.28Z"/><path class="cls-5" d="M496.36,479c3.82,1.33,7,4.12,11.05,4.89a17.61,17.61,0,0,0,3.51,7.18c5.95,8.07,7.2,17,5.84,26.72-4,28.9-6.33,57.92-5.56,87.13.19,7.53.92,15,1.85,22.47.36,2.86-.1,5.32-3.36,5.8-3.42.5-4.61-1.68-5.06-4.78-2.4-16.69-2.57-33.46-1.88-50.26q1.33-32.61,5.91-64.94a21.62,21.62,0,0,0-3.76-15.67A58.16,58.16,0,0,1,496.36,479Z"/><path class="cls-4" d="M591.1,481.34c-4.73,11.56-11.36,21.57-22.49,28-8.26,4.77-17.37,6.07-26.64,6.81-2-6.47-2.57-13.21-4-19.8,9.4.41,17-3.86,23.88-9.59a36.14,36.14,0,0,0,11.8-19.16C580.11,471.38,586.19,475.62,591.1,481.34Z"/><path class="cls-5" d="M538,538.16c-1.19,17.26-1.71,33.21-.2,49.17.73,7.76,1.92,15.43,4.59,22.8,1.06,2.9,1.43,5.81-2.15,7s-5-1.38-6-4.27c-4.38-12.59-5.37-25.69-5.88-38.84a177.58,177.58,0,0,1,.45-24.95,75.76,75.76,0,0,0-2.57-28.65,86.9,86.9,0,0,1-2.18-12.26c-.31-2.3,1-3.87,3.33-4.26s4.33.51,4.68,2.77C533.82,517.65,538,528.18,538,538.16Z"/><path class="cls-1" d="M577.4,402.35c-.13,8.68,2,17.12,2.81,25.69.57,5.94,1.35,11.85,2,17.78-9.16.56-18.28-.55-27.42-.77,0-8.4-2-16.58-2.67-24.91-.24-2.78.58-4.28,2.55-5.65q4.08-2.87,8.17-5.69Z"/><path class="cls-4" d="M577.37,574.16c8.31-1.33,16.51-3,24-7a63.42,63.42,0,0,0,25-24.65c2.67,6.58,3.59,13.65,5.71,20.38-1.64,0-2.07,1.56-2.91,2.5C619.52,576.2,608,584,593.52,587,587.11,584,581.21,580.39,577.37,574.16Z"/><path class="cls-2" d="M593.52,587c14.44-3,26-10.8,35.74-21.62.84-.94,1.27-2.47,2.91-2.5,1.22,7.39,2.52,14.76,3.62,22.16,1.47,9.86-7.39,17.81-16.8,14.91-8.6-2.65-16.56-6.8-24.24-11.46A6.08,6.08,0,0,1,593.52,587Z"/><path class="cls-5" d="M454.24,434.7c1.72,2.46,4.42,4.18,5.45,7.16C447.07,460.25,433.58,477.92,417,493a60.6,60.6,0,0,1-5,4c-2.12,1.55-4.32,1.65-6.06-.52-1.88-2.35-1.22-4.57,1-6.29,10.28-7.94,18.67-17.7,26.83-27.68A316.81,316.81,0,0,0,454.24,434.7Z"/><path class="cls-5" d="M494.92,511c-1.14,6.27-2.19,11.8-3.14,17.34a173.42,173.42,0,0,0-2.37,38.88c0,.67,0,1.35.09,2,.23,2.91-.68,5.28-3.83,5.57-3.48.32-4.67-2.19-4.75-5.17-.16-6.17-.42-12.36-.17-18.52a208.66,208.66,0,0,1,5.58-39.77c.59-2.49,1.95-4.24,4.72-3.93C493.48,507.67,494.82,509.24,494.92,511Z"/><path class="cls-6" d="M486.11,443.38a4.64,4.64,0,0,0-.65.11l.21-.61Z"/><path class="cls-7" d="M539.35,453.68,711.66,368a15,15,0,0,1,20,6.72h0a14.94,14.94,0,0,1-6.72,20L368.34,572a15,15,0,0,1-20-6.72h0a14.94,14.94,0,0,1,6.72-20l184.27-91.59"/><path class="cls-2" d="M539.26,686.15c-119-.1-215.57-97.39-215.36-217.09.21-118.37,97.26-215.24,215.6-215.21a216.46,216.46,0,0,1,216.6,216.7C756,589.66,658.9,686.24,539.26,686.15Zm.39-406.87c-105,.12-190.3,85.58-190.32,190.63s85.49,190.88,190.17,190.8A191,191,0,0,0,730.67,469.22C730.5,364.4,644.78,279.16,539.65,279.28Z"/><path class="cls-8" d="M527.38,742c0-1.5,0-3,0-4.51V742Z"/><path class="cls-8" d="M527.35,768.11h0v0Z"/><path class="cls-9" d="M527.35,790.55V771.31Q527.35,780.93,527.35,790.55Z"/><path class="cls-9" d="M527.35,737.47v-17.8a10.59,10.59,0,0,0-.11-1.5C527.13,724.59,527.28,731,527.35,737.47Z"/><path class="cls-2" d="M552,742.53c0-10.92.49-21.85-.25-32.71-.28-4.12-2.41-9.33-5.5-11.68-2.75-2.1-8.9-2.51-11.88-.78-3.32,1.92-6.38,7-6.69,10.9-.26,3.29-.39,6.6-.45,9.91a10.59,10.59,0,0,1,.11,1.5v17.8c0,1.5,0,3,0,4.51h0v26.13h0v22.44q0,4.47,0,8.94c0,10.16,4.8,16,12.69,15.76,7.66-.24,11.91-5.78,12-15.74,0-10.47,0-20.94,0-31.89,77.27-4.62,143.62-33,198-87.42,48.67-48.71,76.43-107.09,85-174.15H810C796.7,621.81,696,735.79,552,742.53Z"/><path class="cls-2" d="M884.86,470.16c.11-7.7-5.57-12.42-15.19-12.48-10.51-.06-21,0-32.43,0-4.75-77.45-33.1-143.84-87.55-198.19-48.75-48.66-107.15-76.43-174.13-84.94v25.09c118.9,12.86,232,119.48,236.24,258-10.21,0-20.42,0-30.63,0s-16.15,4.71-16,12.49c.12,7.31,5.41,11.65,14.74,12.12h88.69c.31,0,.62,0,.92,0C879.17,482.21,884.74,477.76,884.86,470.16Z"/><path class="cls-2" d="M551.77,142.41a11.45,11.45,0,0,1,.23-2.28v0c-.06-9.71-4.66-15.36-12.34-15.34s-12.24,5.63-12.3,15.37c-.05,10.71,0,21.42,0,32.25-77.57,4.81-143.92,33.2-198.25,87.69-48.53,48.67-76.17,107-84.77,173.7h25c15.41-125.39,123.78-231.2,258-236.1,0,10.46,0,20.92,0,31.37,0,9.59,4.75,15.44,12.3,15.45,6.75,0,11.26-4.72,12.16-12.6,0-.32-.05-.64-.05-1Z"/><path class="cls-2" d="M242,482.33c7.39,148.22,121.48,267.22,261.59,283.93V740.34c-119.25-14.19-230.16-117.28-236.32-258"/><rect class="cls-2" x="242.83" y="410.41" width="24.09" height="119.71" rx="12.05" transform="translate(725.14 215.39) rotate(90)"/><text class="cls-10" transform="translate(243.88 940.26)">Sassi<tspan class="cls-11" x="313.59" y="0">Trap</tspan></text></svg>